<!-- Generated by IcoMoon.io -->
<svg version="1.1" xmlns="http://www.w3.org/2000/svg" width="18" height="18" viewBox="0 0 18 18">
<title>chevron-with-circle-left</title>
<rect fill="#000" x="0" y="0" width="18" height="18"></rect>
<path d="M10.172 6.098c-0.176-0.177-0.464-0.177-0.639 0l-2.526 2.579c-0.176 0.179-0.176 0.468 0 0.645l2.526 2.578c0.175 0.179 0.463 0.178 0.639 0s0.176-0.466 0-0.645l-2.072-2.254 2.072-2.255c0.176-0.178 0.176-0.466 0-0.646zM9 0.36c-4.772 0-8.64 3.868-8.64 8.64s3.868 8.64 8.64 8.64 8.64-3.867 8.64-8.64c0-4.772-3.868-8.64-8.64-8.64zM9 16.519c-4.154 0-7.519-3.366-7.519-7.519s3.365-7.519 7.519-7.519c4.152 0 7.519 3.366 7.519 7.519s-3.367 7.519-7.519 7.519z"></path>
</svg>
