<!-- Generated by IcoMoon.io -->
<svg version="1.1" xmlns="http://www.w3.org/2000/svg" width="18" height="18" viewBox="0 0 18 18">
<title>googleplus</title>
<rect fill="#000" x="0" y="0" width="18" height="18"></rect>
<path fill="#dc4e41" d="M5.726 8.182v1.964h3.251c-0.13 0.844-0.982 2.471-3.248 2.471-1.953 0-3.548-1.62-3.548-3.617s1.592-3.617 3.546-3.617c1.114 0 1.859 0.475 2.284 0.883l1.555-1.495c-0.998-0.934-2.292-1.496-3.836-1.496-3.17-0.001-5.729 2.564-5.729 5.725s2.56 5.726 5.726 5.726c3.308 0 5.499-2.323 5.499-5.596 0-0.376-0.040-0.664-0.090-0.949h-5.409zM18 8.182h-1.637v-1.637h-1.637v1.637h-1.637v1.636h1.638v1.638h1.642v-1.638h1.631z"></path>
</svg>
