<!-- Generated by IcoMoon.io -->
<svg version="1.1" xmlns="http://www.w3.org/2000/svg" width="18" height="18" viewBox="0 0 18 18">
<title>linkedin</title>
<rect fill="#000" x="0" y="0" width="18" height="18"></rect>
<path fill="#0077b5" d="M15.335 15.339h-2.665v-4.177c0-0.996-0.020-2.278-1.389-2.278-1.39 0-1.602 1.084-1.602 2.204v4.25h-2.665v-8.589h2.561v1.171h0.035c0.358-0.675 1.228-1.387 2.528-1.387 2.701 0 3.2 1.778 3.2 4.091v4.715zM4.003 5.575c-0.858 0-1.547-0.694-1.547-1.549s0.69-1.547 1.547-1.547c0.855 0 1.548 0.694 1.548 1.547s-0.694 1.549-1.548 1.549zM5.339 15.339h-2.673v-8.589h2.673v8.589zM16.669 0h-15.34c-0.734 0-1.328 0.581-1.328 1.297v15.407c0 0.717 0.594 1.297 1.328 1.297h15.338c0.733 0 1.333-0.58 1.333-1.297v-15.407c0-0.716-0.6-1.297-1.333-1.297h0.002z"></path>
</svg>
