<!-- Generated by IcoMoon.io -->
<svg version="1.1" xmlns="http://www.w3.org/2000/svg" width="18" height="18" viewBox="0 0 18 18">
<title>local_grocery_storeshopping_cart</title>
<rect fill="#000" x="0" y="0" width="18" height="18"></rect>
<path d="M12.762 13.5q0.598 0 1.037 0.457t0.439 1.055-0.439 1.037-1.037 0.439-1.055-0.439-0.457-1.037 0.457-1.055 1.055-0.457zM0.738 1.512h2.461l0.703 1.477h11.109q0.316 0 0.527 0.229t0.211 0.545q0 0.035-0.105 0.352l-2.672 4.852q-0.422 0.773-1.301 0.773h-5.59l-0.668 1.23-0.035 0.105q0 0.176 0.176 0.176h8.684v1.512h-9q-0.598 0-1.037-0.457t-0.439-1.055q0-0.352 0.176-0.703l1.020-1.863-2.707-5.695h-1.512v-1.477zM5.238 13.5q0.598 0 1.055 0.457t0.457 1.055-0.457 1.037-1.055 0.439-1.037-0.439-0.439-1.037 0.439-1.055 1.037-0.457z"></path>
</svg>
