<!-- Generated by IcoMoon.io -->
<svg version="1.1" xmlns="http://www.w3.org/2000/svg" width="18" height="18" viewBox="0 0 18 18">
<title>local_offer</title>
<rect fill="#000" x="0" y="0" width="18" height="18"></rect>
<path d="M4.113 5.238q0.457 0 0.791-0.334t0.334-0.791-0.334-0.791-0.791-0.334-0.791 0.334-0.334 0.791 0.334 0.791 0.791 0.334zM16.066 8.684q0.422 0.422 0.422 1.055t-0.422 1.055l-5.273 5.273q-0.422 0.422-1.055 0.422t-1.055-0.422l-6.75-6.75q-0.422-0.422-0.422-1.055v-5.273q0-0.598 0.439-1.037t1.037-0.439h5.273q0.633 0 1.055 0.422z"></path>
</svg>
