<!-- Generated by IcoMoon.io -->
<svg version="1.1" xmlns="http://www.w3.org/2000/svg" width="18" height="18" viewBox="0 0 18 18">
<title>price-tag</title>
<rect fill="#000" x="0" y="0" width="18" height="18"></rect>
<path d="M17.156 0h-6.75c-0.464 0-1.112 0.268-1.44 0.597l-8.369 8.369c-0.328 0.328-0.328 0.865 0 1.193l7.244 7.244c0.328 0.328 0.865 0.328 1.193 0l8.369-8.369c0.328-0.328 0.597-0.976 0.597-1.44v-6.75c0-0.464-0.38-0.844-0.844-0.844zM12.938 6.75c-0.932 0-1.688-0.756-1.688-1.688s0.756-1.688 1.688-1.688 1.688 0.756 1.688 1.688-0.756 1.688-1.688 1.688z"></path>
</svg>
