<!-- Generated by IcoMoon.io -->
<svg version="1.1" xmlns="http://www.w3.org/2000/svg" width="18" height="18" viewBox="0 0 18 18">
<title>rocket</title>
<rect fill="#000" x="0" y="0" width="18" height="18"></rect>
<path d="M10.74 11.762c0 0 6.353-4.585 5.648-9.832-0.015-0.114-0.053-0.192-0.101-0.241s-0.123-0.088-0.237-0.104c-5.127-0.721-9.607 5.78-9.607 5.78-3.886-0.465-3.604 0.31-5.377 4.568-0.339 0.812 0.211 1.092 0.814 0.863 0.603-0.227 1.933-0.73 1.933-0.73l2.331 2.383c0 0-0.491 1.363-0.714 1.979s0.049 1.18 0.844 0.833c4.162-1.814 4.919-1.525 4.464-5.501zM11.648 6.438c-0.538-0.552-0.538-1.444 0-1.995 0.538-0.55 1.41-0.55 1.949 0s0.538 1.443 0 1.995c-0.539 0.55-1.412 0.55-1.949 0z"></path>
</svg>
