<!-- Generated by IcoMoon.io -->
<svg version="1.1" xmlns="http://www.w3.org/2000/svg" width="18" height="18" viewBox="0 0 18 18">
<title>skype1</title>
<rect fill="#000" x="0" y="0" width="18" height="18"></rect>
<path fill="#00aff0" d="M9.052 14.156c-3.017 0-4.365-1.484-4.365-2.598 0-0.574 0.421-0.972 1-0.972 1.292 0 0.955 1.858 3.365 1.858 1.231 0 1.912-0.671 1.912-1.358 0-0.413-0.202-0.87-1.016-1.072l-2.682-0.671c-2.16-0.543-2.552-1.715-2.552-2.813 0-2.285 2.146-3.143 4.162-3.143 1.853 0 4.045 1.030 4.045 2.399 0 0.588-0.516 0.93-1.090 0.93-1.102 0-0.899-1.528-3.123-1.528-1.102 0-1.719 0.498-1.719 1.213s0.865 0.944 1.618 1.115l1.978 0.44c2.168 0.487 2.718 1.76 2.718 2.958 0 1.857-1.427 3.243-4.292 3.243zM17.324 10.495l-0.022 0.101-0.033-0.18c0.011 0.034 0.033 0.055 0.044 0.090 0.090-0.506 0.136-1.022 0.136-1.539 0-1.147-0.226-2.259-0.674-3.315-0.427-1.011-1.046-1.922-1.82-2.697-0.787-0.775-1.685-1.392-2.696-1.819-0.989-0.473-2.101-0.698-3.246-0.698-0.54 0-1.083 0.053-1.607 0.153l0.089 0.045-0.179-0.025 0.089-0.019c-0.723-0.387-1.534-0.593-2.357-0.593-1.342 0-2.602 0.523-3.552 1.475s-1.472 2.217-1.472 3.562c0 0.857 0.219 1.699 0.633 2.443l0.015-0.093 0.031 0.179-0.045-0.086c-0.086 0.484-0.129 0.974-0.129 1.466 0 1.147 0.225 2.263 0.663 3.312 0.426 1.021 1.034 1.932 1.82 2.707 0.775 0.787 1.685 1.393 2.696 1.832 1.045 0.45 2.158 0.674 3.303 0.674 0.494 0 1-0.045 1.483-0.134l-0.089-0.046 0.18 0.035-0.101 0.022c0.751 0.427 1.594 0.653 2.47 0.653 1.337 0 2.594-0.518 3.55-1.472 0.944-0.944 1.471-2.213 1.471-3.562 0-0.854-0.224-1.697-0.64-2.449z"></path>
</svg>
