<!-- Generated by IcoMoon.io -->
<svg version="1.1" xmlns="http://www.w3.org/2000/svg" width="18" height="18" viewBox="0 0 18 18">
<title>twitter1</title>
<rect fill="#000" x="0" y="0" width="18" height="18"></rect>
<path fill="#1da1f2" d="M17.965 3.427c-0.664 0.292-1.373 0.49-2.119 0.581 0.761-0.458 1.346-1.18 1.622-2.042-0.713 0.416-1.504 0.719-2.345 0.888-0.672-0.719-1.63-1.169-2.693-1.169-2.038 0-3.69 1.652-3.69 3.688 0 0.293 0.034 0.574 0.095 0.843-3.068-0.145-5.786-1.618-7.606-3.844-0.32 0.541-0.499 1.171-0.499 1.856 0 1.282 0.653 2.41 1.641 3.072-0.605-0.019-1.174-0.186-1.671-0.462v0.046c0 1.789 1.27 3.28 2.96 3.62-0.31 0.083-0.637 0.128-0.972 0.128-0.235 0-0.461-0.023-0.687-0.064 0.473 1.465 1.834 2.533 3.453 2.563-1.26 0.989-2.857 1.579-4.576 1.579-0.292 0-0.584-0.017-0.878-0.050 1.642 1.045 3.576 1.657 5.668 1.657 6.79 0 10.499-5.622 10.499-10.489 0-0.157 0-0.315-0.011-0.473 0.721-0.517 1.35-1.17 1.845-1.911l-0.035-0.015z"></path>
</svg>
